<?xml version="1.0" encoding="UTF-8"?>
<svg version="1.1" xmlns="http://www.w3.org/2000/svg" width="469" height="135">
<path d="M0 0 C6.5176378 5.10130497 9.70480515 11.51184824 13 19 C13.51453232 20.1258123 13.51453232 20.1258123 14.03945923 21.27436829 C17.28146677 30.47389301 16.1183741 41.72253731 15.9140625 51.36328125 C15.89282318 52.56188278 15.87158386 53.76048431 15.84970093 54.9954071 C15.8038808 57.49691419 15.75499749 59.99836696 15.703125 62.49975586 C15.6242719 66.34803361 15.55759465 70.19639444 15.4921875 74.04492188 C15.44602724 76.48438863 15.39917798 78.92384247 15.3515625 81.36328125 C15.33171295 82.51725906 15.3118634 83.67123688 15.29141235 84.86018372 C15.25665298 86.44400093 15.25665298 86.44400093 15.22119141 88.05981445 C15.20263092 88.99243607 15.18407043 89.92505768 15.16494751 90.88594055 C15 93 15 93 14 94 C11.49075847 94.10087212 9.00963616 94.13972032 6.5 94.1328125 C5.74912109 94.13376923 4.99824219 94.13472595 4.22460938 94.13571167 C2.63411373 94.13639338 1.04361533 94.13453972 -0.546875 94.13037109 C-2.98964655 94.12502267 -5.43223421 94.13031634 -7.875 94.13671875 C-9.41666707 94.13605797 -10.95833403 94.1347768 -12.5 94.1328125 C-13.23541016 94.13483673 -13.97082031 94.13686096 -14.72851562 94.13894653 C-19.88504839 94.11495161 -19.88504839 94.11495161 -21 93 C-21.10782241 91.08320218 -21.14627578 89.16246971 -21.15771484 87.24267578 C-21.16797699 86.01114777 -21.17823914 84.77961975 -21.18881226 83.51077271 C-21.19225018 82.84847782 -21.1956881 82.18618294 -21.19923019 81.50381851 C-21.21098983 79.43611202 -21.23043486 77.3686172 -21.25234985 75.30099487 C-21.31406327 69.42094961 -21.36802058 63.54092436 -21.40136719 57.66064453 C-21.42229713 54.06722185 -21.45758833 50.47418186 -21.50212479 46.88097763 C-21.51630133 45.51028826 -21.52501097 44.13953114 -21.52817917 42.76877213 C-21.53307996 40.85113679 -21.55783373 38.93358316 -21.58349609 37.01611328 C-21.59562637 35.37849533 -21.59562637 35.37849533 -21.60800171 33.70779419 C-21.79751496 30.99775479 -21.79751496 30.99775479 -23.29556274 29.10446167 C-26.15339322 27.25261045 -28.819491 28.33989436 -32 29 C-32.33 31.31 -32.66 33.62 -33 36 C-29.01082055 38.69856257 -27.0800318 39.15332803 -22 40 C-22 51.88 -22 63.76 -22 76 C-37.70619625 76 -47.63310738 73.63510413 -59 63.15625 C-66.72530944 55.03135559 -70.80859631 44.27539499 -71.06640625 33.12890625 C-70.48834754 19.65838659 -64.3682126 9.01440463 -54.875 -0.1875 C-38.52459474 -14.24165545 -16.46593976 -12.47972333 0 0 Z " fill="#FC6103" transform="translate(77,34)"/>
<path d="M0 0 C11.88 0 23.76 0 36 0 C36.33 15.18 36.66 30.36 37 46 C41.23534169 37.81857288 41.23534169 37.81857288 45.46655273 29.63500977 C45.99192627 28.62237061 46.5172998 27.60973145 47.05859375 26.56640625 C47.86768188 25.00321655 47.86768188 25.00321655 48.69311523 23.40844727 C50 21 50 21 51 20 C53.8116338 19.91138008 56.59858255 19.88477645 59.41015625 19.90234375 C60.25219101 19.9037587 61.09422577 19.90517365 61.96177673 19.90663147 C64.66205335 19.91224737 67.36224828 19.92480252 70.0625 19.9375 C71.88867068 19.94251295 73.71484266 19.94707621 75.54101562 19.95117188 C80.02737542 19.96222196 84.51367384 19.97949721 89 20 C83.78721654 30.67763412 78.25556683 41.01972702 72.0546875 51.16601562 C71.4978125 52.11541016 70.9409375 53.06480469 70.3671875 54.04296875 C69.61091064 55.29630005 69.61091064 55.29630005 68.83935547 56.57495117 C67.7435126 59.00178947 67.7435126 59.00178947 68.69555664 61.53662109 C69.92047715 63.8498249 71.15393689 66.12847934 72.50390625 68.37109375 C72.99342773 69.18658691 73.48294922 70.00208008 73.98730469 70.84228516 C74.50711914 71.69870605 75.02693359 72.55512695 75.5625 73.4375 C76.35962402 74.76080322 76.35962402 74.76080322 77.17285156 76.11083984 C81.12938185 82.64848993 85.22838125 89.07823415 89.453125 95.4453125 C91 98 91 98 91 100 C78.79 100.33 66.58 100.66 54 101 C48.39 91.76 42.78 82.52 37 73 C36.67 81.91 36.34 90.82 36 100 C32.41762963 101.19412346 29.52258543 101.12957863 25.7421875 101.1328125 C24.68670212 101.13424759 24.68670212 101.13424759 23.6098938 101.13571167 C22.12550771 101.13639125 20.64111863 101.13455245 19.15673828 101.13037109 C16.87656042 101.12500367 14.59657811 101.13033171 12.31640625 101.13671875 C10.87499956 101.13605824 9.433593 101.13477765 7.9921875 101.1328125 C6.67589355 101.13168457 5.35959961 101.13055664 4.00341797 101.12939453 C1 101 1 101 0 100 C-0.09533653 96.8949275 -0.12551126 93.81213542 -0.11352539 90.70678711 C-0.11367142 89.73128403 -0.11381744 88.75578094 -0.1139679 87.75071716 C-0.11326833 84.50957047 -0.10547391 81.26848046 -0.09765625 78.02734375 C-0.09579222 75.78674857 -0.09436825 73.54615298 -0.09336853 71.30555725 C-0.08954213 65.3954049 -0.0797108 59.48527695 -0.06866455 53.57513428 C-0.05845306 47.54944183 -0.05387147 41.52374547 -0.04882812 35.49804688 C-0.03808864 23.66535211 -0.02049086 11.8326819 0 0 Z " fill="#000000" transform="translate(303,7)"/>
<path d="M0 0 C12.21 0 24.42 0 37 0 C37.06058594 3.08085937 37.12117188 6.16171875 37.18359375 9.3359375 C37.24535594 12.31122359 37.30875491 15.28647058 37.37231445 18.26171875 C37.41569577 20.33362366 37.45736846 22.40556507 37.49731445 24.47753906 C37.55493965 27.45128391 37.61865625 30.42484448 37.68359375 33.3984375 C37.70030624 34.32868744 37.71701874 35.25893738 37.73423767 36.21737671 C37.7641555 37.50848862 37.7641555 37.50848862 37.79467773 38.82568359 C37.81799416 39.96485733 37.81799416 39.96485733 37.84178162 41.12704468 C37.89127127 43.09115721 37.89127127 43.09115721 39 45 C40.8064655 46.0146239 40.8064655 46.0146239 43 46 C45.29913662 44.64819639 45.29913662 44.64819639 47 42 C47.62129039 38.81454227 47.60494499 35.65991884 47.609375 32.421875 C47.62591125 31.4953009 47.64244751 30.56872681 47.65948486 29.61407471 C47.70800726 26.659316 47.72934524 23.70507211 47.75 20.75 C47.77815613 18.74476571 47.80808305 16.73955544 47.83984375 14.734375 C47.91709725 9.8226789 47.95757673 4.91261439 48 0 C59.88 0 71.76 0 84 0 C84.06919384 6.63492077 84.12883159 13.26856922 84.16479492 19.90356445 C84.17980076 22.1565375 84.20021191 24.40948175 84.22631836 26.66235352 C84.26306443 29.91690214 84.27980894 33.17106166 84.29296875 36.42578125 C84.30845261 37.41894852 84.32393646 38.41211578 84.33988953 39.43537903 C84.34268617 51.28586812 81.2556489 62.0986067 73.18359375 71.00390625 C63.83058905 79.75227226 52.33628148 83.56898431 39.63671875 83.25 C28.38562447 82.18322958 18.05029633 78.05029633 10 70 C1.34805903 57.74308362 -0.18515995 46.53638815 -0.09765625 31.8359375 C-0.0962413 30.91785309 -0.09482635 29.99976868 -0.09336853 29.05386353 C-0.0878322 26.16087392 -0.07529219 23.26796567 -0.0625 20.375 C-0.05747675 18.39713655 -0.0529153 16.41927186 -0.04882812 14.44140625 C-0.03874041 9.62754865 -0.0191533 4.81386391 0 0 Z " fill="#000000" transform="translate(93,27)"/>
<path d="M0 0 C9.46547994 6.35318898 16.14981355 15.20499049 19.0625 26.3046875 C21.18948251 38.64118609 19.84597009 50.38895815 12.84375 60.9609375 C6.16099363 69.75403798 -2.67109014 77.39616998 -13.9375 79.3046875 C-26.70625805 80.12978733 -38.74389835 79.6007497 -49.0625 71.06640625 C-57.95533481 62.71084688 -64.61570499 53.67542859 -65.2734375 41.0703125 C-65.52810995 28.32829423 -63.87800373 17.9984931 -54.9375 8.3046875 C-39.9947213 -6.80443011 -18.82000988 -10.86154826 0 0 Z M-28.375 32.4921875 C-30.14996878 35.15090057 -30.14996878 35.15090057 -29.9375 37.9296875 C-28.69687627 40.87616885 -27.81818899 41.90327124 -24.9375 43.3046875 C-21.84754903 43.38692116 -21.84754903 43.38692116 -18.9375 42.3046875 C-18.54135498 41.63791992 -18.14520996 40.97115234 -17.73706055 40.28417969 C-15.9375 38.3046875 -15.9375 38.3046875 -12.47583008 37.75878906 C-11.05333694 37.71756867 -9.63011947 37.69771349 -8.20703125 37.6953125 C-7.45661057 37.67877625 -6.70618988 37.66223999 -5.93302917 37.64520264 C-3.53860344 37.59665698 -1.14481298 37.57533865 1.25 37.5546875 C2.87438103 37.52653307 4.49873239 37.49660638 6.12304688 37.46484375 C10.10281227 37.39089711 14.08222367 37.34136333 18.0625 37.3046875 C18.0625 36.9746875 18.0625 36.6446875 18.0625 36.3046875 C6.8425 35.9746875 -4.3775 35.6446875 -15.9375 35.3046875 C-16.5975 33.9846875 -17.2575 32.6646875 -17.9375 31.3046875 C-22.00336102 29.27175699 -25.00065897 29.46393273 -28.375 32.4921875 Z " fill="#000000" transform="translate(281.9375,30.6953125)"/>
<path d="M0 0 C11.88 0 23.76 0 36 0 C36 26.4 36 52.8 36 80 C32.41762963 81.19412346 29.52258543 81.12957863 25.7421875 81.1328125 C24.68670212 81.13424759 24.68670212 81.13424759 23.6098938 81.13571167 C22.12550771 81.13639125 20.64111863 81.13455245 19.15673828 81.13037109 C16.87656042 81.12500367 14.59657811 81.13033171 12.31640625 81.13671875 C10.87499956 81.13605824 9.433593 81.13477765 7.9921875 81.1328125 C6.67589355 81.13168457 5.35959961 81.13055664 4.00341797 81.12939453 C1 81 1 81 0 80 C-0.09502416 77.50507612 -0.12557566 75.03793986 -0.11352539 72.54272461 C-0.11367142 71.76229294 -0.11381744 70.98186127 -0.1139679 70.17778015 C-0.11326858 67.5859402 -0.10547536 64.99417122 -0.09765625 62.40234375 C-0.09579213 60.6101536 -0.0943682 58.81796294 -0.09336853 57.02577209 C-0.08954284 52.29929203 -0.07971212 47.57284248 -0.06866455 42.84637451 C-0.05665719 37.18044414 -0.05204843 31.51450359 -0.04621124 25.84856415 C-0.03650039 17.23235484 -0.0173442 8.61621257 0 0 Z " fill="#000000" transform="translate(179,27)"/>
<path d="M0 0 C2.31 0 4.62 0 7 0 C7 2.97 7 5.94 7 9 C8.65 9.33 10.3 9.66 12 10 C12 11.65 12 13.3 12 15 C10.35 15 8.7 15 7 15 C7 19.62 7 24.24 7 29 C8.65 29.33 10.3 29.66 12 30 C12 31.65 12 33.3 12 35 C8.23918426 36.25360525 5.84551868 35.83902226 2 35 C-0.03120707 31.95318939 -0.24659875 31.39881676 -0.1953125 27.98828125 C-0.18886719 27.23095703 -0.18242187 26.47363281 -0.17578125 25.69335938 C-0.15902344 24.90767578 -0.14226562 24.12199219 -0.125 23.3125 C-0.11597656 22.51521484 -0.10695313 21.71792969 -0.09765625 20.89648438 C-0.07411585 18.930861 -0.03824547 16.96539225 0 15 C-1.32 15 -2.64 15 -4 15 C-4 13.35 -4 11.7 -4 10 C-2.68 9.67 -1.36 9.34 0 9 C0 6.03 0 3.06 0 0 Z " fill="#151414" transform="translate(446,70)"/>
<path d="M0 0 C0.33 0 0.66 0 1 0 C1.78313698 9.15554698 2.10871334 18.17839481 1.9140625 27.36328125 C1.89282318 28.56188278 1.87158386 29.76048431 1.84970093 30.9954071 C1.8038808 33.49691419 1.75499749 35.99836696 1.703125 38.49975586 C1.6242719 42.34803361 1.55759465 46.19639444 1.4921875 50.04492188 C1.44602724 52.48438863 1.39917798 54.92384247 1.3515625 57.36328125 C1.33171295 58.51725906 1.3118634 59.67123688 1.29141235 60.86018372 C1.26823944 61.91606186 1.24506653 62.97194 1.22119141 64.05981445 C1.20263092 64.99243607 1.18407043 65.92505768 1.16494751 66.88594055 C1 69 1 69 0 70 C-2.50924153 70.10087212 -4.99036384 70.13972032 -7.5 70.1328125 C-8.25087891 70.13376923 -9.00175781 70.13472595 -9.77539062 70.13571167 C-11.36588627 70.13639338 -12.95638467 70.13453972 -14.546875 70.13037109 C-16.98964655 70.12502267 -19.43223421 70.13031634 -21.875 70.13671875 C-23.41666707 70.13605797 -24.95833403 70.1347768 -26.5 70.1328125 C-27.23541016 70.13483673 -27.97082031 70.13686096 -28.72851562 70.13894653 C-33.88504839 70.11495161 -33.88504839 70.11495161 -35 69 C-35.09396057 67.06693502 -35.11743517 65.13041162 -35.11352539 63.19506836 C-35.11344986 61.95385727 -35.11337433 60.71264618 -35.11329651 59.43382263 C-35.10818911 58.0691626 -35.1029731 56.70450298 -35.09765625 55.33984375 C-35.095792 53.95121817 -35.09436813 52.56259193 -35.09336853 51.17396545 C-35.08954387 47.51278885 -35.07971403 43.8516517 -35.06866455 40.19049072 C-35.05844932 36.45707737 -35.05387067 32.72365766 -35.04882812 28.99023438 C-35.03809171 21.66013823 -35.02101591 14.33007464 -35 7 C-34.67 7 -34.34 7 -34 7 C-34 27.13 -34 47.26 -34 68 C-23.11 67.67 -12.22 67.34 -1 67 C-1.01740234 61.12767578 -1.01740234 61.12767578 -1.03515625 55.13671875 C-1.04296978 51.31730226 -1.04903347 47.49788667 -1.05493164 43.6784668 C-1.05993987 41.03751218 -1.06674836 38.3965603 -1.07543945 35.75561523 C-1.08765942 31.94514282 -1.09326357 28.13470728 -1.09765625 24.32421875 C-1.10281754 23.15606125 -1.10797882 21.98790375 -1.11329651 20.78434753 C-1.11376743 13.79936979 -0.77145912 6.94302276 0 0 Z " fill="#D86B2C" transform="translate(91,58)"/>
<path d="M0 0 C2.31 0 4.62 0 7 0 C7 8.58 7 17.16 7 26 C2 27 2 27 0 26 C0 17.42 0 8.84 0 0 Z " fill="#141413" transform="translate(422,79)"/>
<path d="M0 0 C2.625 -0.1875 2.625 -0.1875 5 0 C5.66 1.65 6.32 3.3 7 5 C5.8125 6.5625 5.8125 6.5625 4 8 C1.3125 7.6875 1.3125 7.6875 -1 7 C-1.625 5.1875 -1.625 5.1875 -2 3 C-1.34 2.01 -0.68 1.02 0 0 Z " fill="#141213" transform="translate(423,70)"/>
<path d="M0 0 C2.625 0.375 2.625 0.375 5 1 C5.625 3.375 5.625 3.375 6 6 C5.34 6.66 4.68 7.32 4 8 C1.375 7.625 1.375 7.625 -1 7 C-1.625 4.625 -1.625 4.625 -2 2 C-1.34 1.34 -0.68 0.68 0 0 Z " fill="#141210" transform="translate(402,98)"/>
</svg>
